<svg xmlns="http://www.w3.org/2000/svg" xmlns:xlink="http://www.w3.org/1999/xlink" version="1.1" id="Layer_1" x="0px" y="0px" enable-background="new 0 0 1136 936" xml:space="preserve" viewBox="111.4 629.2 273.5 114.1">
	<g>
		<polygon fill="#C72E27" points="302.9,629.2 215.1,629.2 215.1,636.1 302.9,636   "/>
		<rect x="323.8" y="723.5" fill="#F26522" width="0" height="5.3"/>
		<rect x="227.8" y="709.3" fill="#F26522" width="0" height="34"/>
		<path fill="#F26522" d="M381,688.1c0.6,0,1.1,0.2,1.6,0.4l-0.1-45.3c0-4.1-3.3-7.4-7.4-7.4l-72.3,0.1l-87.8,0.1l-84.9,0.1    c-8.5,0-15.4,6.9-15.4,15.4h31.4c4.8,0,8.8,3.9,8.8,8.8c0,4.8-3.9,8.8-8.8,8.8h-31.4l0,19.4c0.1,0,0.1,0,0.2,0L381,688.1z     M261.7,665.3c0,2.1-1.7,3.8-3.8,3.8h-11c-2.1,0-3.8-1.7-3.8-3.8v-9.9c0-2.1,1.7-3.8,3.8-3.8h11c2.1,0,3.8,1.7,3.8,3.8V665.3z     M295.8,665.3c0,2.1-1.7,3.8-3.8,3.8h-11c-2.1,0-3.8-1.7-3.8-3.8v-9.9c0-2.1,1.7-3.8,3.8-3.8h11c2.1,0,3.8,1.7,3.8,3.8V665.3z     M345.4,655.5c0-2.1,1.7-3.8,3.8-3.8h11c2.1,0,3.8,1.7,3.8,3.8v9.9c0,2.1-1.7,3.8-3.8,3.8h-11c-2.1,0-3.8-1.7-3.8-3.8V655.5z     M311.2,655.5c0-2.1,1.7-3.8,3.8-3.8h11c2.1,0,3.8,1.7,3.8,3.8v9.9c0,2.1-1.7,3.8-3.8,3.8h-11c-2.1,0-3.8-1.7-3.8-3.8V655.5z     M208.9,655.5c0-2.1,1.7-3.8,3.8-3.8h11c2.1,0,3.8,1.7,3.8,3.8v9.9c0,2.1-1.7,3.8-3.8,3.8h-11c-2.1,0-3.8-1.7-3.8-3.8V655.5z     M174.8,655.5c0-2.1,1.7-3.8,3.8-3.8h11c2.1,0,3.8,1.7,3.8,3.8v9.9c0,2.1-1.7,3.8-3.8,3.8h-11c-2.1,0-3.8-1.7-3.8-3.8V655.5z"/>
		<rect x="283" y="722.7" fill="#F26522" width="0" height="7.1"/>
		<rect x="172.6" y="722.8" fill="#F26522" width="0" height="7.1"/>
		
			<rect x="361.1" y="726.1" transform="matrix(-1 1.555832e-003 -1.555832e-003 -1 737.4975 1451.5615)" fill="#F26522" width="14.1" height="0"/>
		<path fill="#F26522" d="M115,726.5c-0.1,0-0.1,0-0.2,0v0l19.6,0l0,0L115,726.5z"/>
		<path fill="#27AAE1" d="M178.6,669.2h11c2.1,0,3.8-1.7,3.8-3.8v-9.9c0-2.1-1.7-3.8-3.8-3.8h-11c-2.1,0-3.8,1.7-3.8,3.8v9.9    C174.8,667.5,176.5,669.2,178.6,669.2z"/>
		<path fill="#27AAE1" d="M212.7,669.2h11c2.1,0,3.8-1.7,3.8-3.8v-9.9c0-2.1-1.7-3.8-3.8-3.8h-11c-2.1,0-3.8,1.7-3.8,3.8v9.9    C208.9,667.5,210.6,669.2,212.7,669.2z"/>
		<path fill="#27AAE1" d="M257.9,651.6h-11c-2.1,0-3.8,1.7-3.8,3.8v9.9c0,2.1,1.7,3.8,3.8,3.8h11c2.1,0,3.8-1.7,3.8-3.8v-9.9    C261.7,653.4,260,651.6,257.9,651.6z"/>
		<path fill="#27AAE1" d="M292,651.6h-11c-2.1,0-3.8,1.7-3.8,3.8v9.9c0,2.1,1.7,3.8,3.8,3.8h11c2.1,0,3.8-1.7,3.8-3.8v-9.9    C295.8,653.4,294.1,651.6,292,651.6z"/>
		<path fill="#27AAE1" d="M315.1,669.2h11c2.1,0,3.8-1.7,3.8-3.8v-9.9c0-2.1-1.7-3.8-3.8-3.8h-11c-2.1,0-3.8,1.7-3.8,3.8v9.9    C311.2,667.5,312.9,669.2,315.1,669.2z"/>
		<path fill="#939698" d="M157.6,726.4c-1.2,1.9-3.4,3.2-5.8,3.2c-2.5,0-4.6-1.3-5.9-3.2l-11.5,0l0,0c1.7,8,8.8,14,17.3,14    c8.5,0,15.6-6,17.3-14l0,0L157.6,726.4z"/>
		<path fill="#141012" d="M151.8,729.6c2.5,0,4.6-1.3,5.8-3.2l-11.7,0C147.2,728.3,149.3,729.6,151.8,729.6z"/>
		<path fill="#939698" d="M199.3,726.3c-1.2,1.9-3.4,3.2-5.8,3.2c-2.5,0-4.6-1.3-5.9-3.2l-11.5,0l0,0c1.7,8,8.8,14,17.3,14    c8.5,0,15.6-6,17.3-14l0,0L199.3,726.3z"/>
		<path fill="#141012" d="M193.5,729.5c2.5,0,4.6-1.3,5.8-3.2l-11.7,0C188.9,728.3,191,729.5,193.5,729.5z"/>
		<path fill="#939698" d="M267.9,726.2c-1.2,1.9-3.4,3.2-5.8,3.2c-2.5,0-4.6-1.3-5.9-3.2l-11.5,0l0,0c1.7,8,8.8,14,17.3,14    c8.5,0,15.6-6,17.3-14l0,0L267.9,726.2z"/>
		<path fill="#141012" d="M262.1,729.4c2.5,0,4.6-1.3,5.8-3.2l-11.7,0C257.5,728.2,259.6,729.4,262.1,729.4z"/>
		<path fill="#939698" d="M309.7,726.2c-1.2,1.9-3.4,3.2-5.8,3.2c-2.5,0-4.6-1.3-5.9-3.2l-11.5,0v0c1.7,8,8.8,14,17.3,14    c8.5,0,15.6-6,17.3-14l0,0L309.7,726.2z"/>
		<path fill="#141012" d="M303.8,729.4c2.5,0,4.6-1.3,5.8-3.2l-11.7,0C299.2,728.1,301.4,729.4,303.8,729.4z"/>
		<path fill="#939698" d="M349.6,726.1c-1.2,1.9-3.4,3.2-5.8,3.2c-2.5,0-4.6-1.3-5.9-3.2l-11.5,0l0,0c1.7,8,8.8,14,17.3,14    c8.5,0,15.6-6,17.3-14h0L349.6,726.1z"/>
		<path fill="#141012" d="M343.8,729.3c2.5,0,4.6-1.3,5.8-3.2l-11.7,0C339.2,728,341.3,729.3,343.8,729.3z"/>
		<path fill="#C72E27" d="M384.6,721.9l-100-0.2c-2,0-3.6-1.6-3.6-3.6l0-21.8c0-2,1.6-3.6,3.6-3.6l100,0.2l0-1.3    c0-1.4-0.8-2.6-2-3.2c-0.5-0.2-1-0.4-1.6-0.4l-266,0.4c-0.1,0-0.1,0-0.2,0c-1.9,0.1-3.4,1.6-3.4,3.6l0,0.9l100-0.2    c2,0,3.6,1.6,3.6,3.6l0,21.8c0,2-1.6,3.6-3.6,3.6l-100,0.2l0-17.1l0,18.1c0,1.9,1.5,3.5,3.4,3.5c0.1,0,0.1,0,0.2,0l19.4,0l11.5,0    l11.7,0l11.5,0l7.1,0l11.5,0l11.7,0l11.5,0l34-0.1l11.5,0l11.7,0l11.5,0l7.1,0l11.5,0l11.7,0l11.5,0l5.3,0l11.5,0l11.7,0l11.5,0    l14.1,0l5.8,0c2,0,3.6-1.6,3.6-3.6l0-14.7L384.6,721.9z"/>
		<path fill="#B44426" d="M211.5,721.8c2,0,3.6-1.6,3.6-3.6l0-21.8c0-2-1.6-3.6-3.6-3.6l-100,0.2l0,0l0,11.8l0,17.1L211.5,721.8z     M203.4,697.1c1.2,0,2.2,1,2.2,2.2v16.9c0,1.2-1,2.2-2.2,2.2s-2.2-1-2.2-2.2v-16.9C201.3,698.1,202.3,697.1,203.4,697.1z     M189.6,697.1c1.2,0,2.2,1,2.2,2.2v16.9c0,1.2-1,2.2-2.2,2.2c-1.2,0-2.2-1-2.2-2.2v-16.9C187.4,698.1,188.4,697.1,189.6,697.1z     M173.5,699.3c0-1.2,1-2.2,2.2-2.2s2.2,1,2.2,2.2v16.9c0,1.2-1,2.2-2.2,2.2s-2.2-1-2.2-2.2V699.3z M161.8,697.1    c1.2,0,2.2,1,2.2,2.2v16.9c0,1.2-1,2.2-2.2,2.2s-2.2-1-2.2-2.2v-16.9C159.6,698.1,160.6,697.1,161.8,697.1z M147.9,697.1    c1.2,0,2.2,1,2.2,2.2v16.9c0,1.2-1,2.2-2.2,2.2s-2.2-1-2.2-2.2v-16.9C145.8,698.1,146.7,697.1,147.9,697.1z M131.9,699.3    c0-1.2,1-2.2,2.2-2.2c1.2,0,2.2,1,2.2,2.2v16.9c0,1.2-1,2.2-2.2,2.2c-1.2,0-2.2-1-2.2-2.2V699.3z M118,699.3c0-1.2,1-2.2,2.2-2.2    c1.2,0,2.2,1,2.2,2.2v16.9c0,1.2-1,2.2-2.2,2.2c-1.2,0-2.2-1-2.2-2.2V699.3z"/>
		<path fill="#B44426" d="M284.6,692.8c-2,0-3.6,1.6-3.6,3.6l0,21.8c0,2,1.6,3.6,3.6,3.6l100,0.2l0-14.2l0-14.7h0L284.6,692.8z     M291.1,718.4c-1.2,0-2.2-1-2.2-2.2v-16.9c0-1.2,1-2.2,2.2-2.2c1.2,0,2.2,1,2.2,2.2v16.9C293.3,717.4,292.3,718.4,291.1,718.4z     M305,718.4c-1.2,0-2.2-1-2.2-2.2v-16.9c0-1.2,1-2.2,2.2-2.2c1.2,0,2.2,1,2.2,2.2v16.9C307.2,717.4,306.2,718.4,305,718.4z     M318.9,718.4c-1.2,0-2.2-1-2.2-2.2v-16.9c0-1.2,1-2.2,2.2-2.2s2.2,1,2.2,2.2v16.9C321.1,717.4,320.1,718.4,318.9,718.4z     M332.8,718.4c-1.2,0-2.2-1-2.2-2.2v-16.9c0-1.2,1-2.2,2.2-2.2s2.2,1,2.2,2.2v16.9C335,717.4,334,718.4,332.8,718.4z M346.7,718.4    c-1.2,0-2.2-1-2.2-2.2v-16.9c0-1.2,1-2.2,2.2-2.2s2.2,1,2.2,2.2v16.9C348.8,717.4,347.9,718.4,346.7,718.4z M362.7,716.2    c0,1.2-1,2.2-2.2,2.2c-1.2,0-2.2-1-2.2-2.2v-16.9c0-1.2,1-2.2,2.2-2.2c1.2,0,2.2,1,2.2,2.2V716.2z M376.6,716.2    c0,1.2-1,2.2-2.2,2.2s-2.2-1-2.2-2.2v-16.9c0-1.2,1-2.2,2.2-2.2s2.2,1,2.2,2.2V716.2z"/>
		<path fill="#27AAE1" d="M155,660.4c0-4.8-3.9-8.8-8.8-8.8h-31.4v17.5h0h31.4C151,669.2,155,665.2,155,660.4z"/>
		<path fill="#F26522" d="M120.2,718.4c1.2,0,2.2-1,2.2-2.2v-16.9c0-1.2-1-2.2-2.2-2.2c-1.2,0-2.2,1-2.2,2.2v16.9    C118,717.4,119,718.4,120.2,718.4z"/>
		<path fill="#F26522" d="M134,718.4c1.2,0,2.2-1,2.2-2.2v-16.9c0-1.2-1-2.2-2.2-2.2c-1.2,0-2.2,1-2.2,2.2v16.9    C131.9,717.4,132.8,718.4,134,718.4z"/>
		<path fill="#F26522" d="M145.8,716.2c0,1.2,1,2.2,2.2,2.2s2.2-1,2.2-2.2v-16.9c0-1.2-1-2.2-2.2-2.2s-2.2,1-2.2,2.2V716.2z"/>
		<path fill="#F26522" d="M159.6,716.2c0,1.2,1,2.2,2.2,2.2s2.2-1,2.2-2.2v-16.9c0-1.2-1-2.2-2.2-2.2s-2.2,1-2.2,2.2V716.2z"/>
		<path fill="#F26522" d="M175.7,718.4c1.2,0,2.2-1,2.2-2.2v-16.9c0-1.2-1-2.2-2.2-2.2s-2.2,1-2.2,2.2v16.9    C173.5,717.4,174.5,718.4,175.7,718.4z"/>
		<path fill="#F26522" d="M187.4,716.2c0,1.2,1,2.2,2.2,2.2c1.2,0,2.2-1,2.2-2.2v-16.9c0-1.2-1-2.2-2.2-2.2c-1.2,0-2.2,1-2.2,2.2    V716.2z"/>
		<path fill="#F26522" d="M201.3,716.2c0,1.2,1,2.2,2.2,2.2s2.2-1,2.2-2.2v-16.9c0-1.2-1-2.2-2.2-2.2s-2.2,1-2.2,2.2V716.2z"/>
		<path fill="#F26522" d="M293.3,699.3c0-1.2-1-2.2-2.2-2.2c-1.2,0-2.2,1-2.2,2.2v16.9c0,1.2,1,2.2,2.2,2.2c1.2,0,2.2-1,2.2-2.2    V699.3z"/>
		<path fill="#F26522" d="M307.2,716.2v-16.9c0-1.2-1-2.2-2.2-2.2c-1.2,0-2.2,1-2.2,2.2v16.9c0,1.2,1,2.2,2.2,2.2    C306.2,718.4,307.2,717.4,307.2,716.2z"/>
		<path fill="#F26522" d="M321.1,699.3c0-1.2-1-2.2-2.2-2.2s-2.2,1-2.2,2.2v16.9c0,1.2,1,2.2,2.2,2.2s2.2-1,2.2-2.2V699.3z"/>
		<path fill="#F26522" d="M335,699.3c0-1.2-1-2.2-2.2-2.2s-2.2,1-2.2,2.2v16.9c0,1.2,1,2.2,2.2,2.2s2.2-1,2.2-2.2V699.3z"/>
		<path fill="#F26522" d="M348.8,716.2v-16.9c0-1.2-1-2.2-2.2-2.2s-2.2,1-2.2,2.2v16.9c0,1.2,1,2.2,2.2,2.2S348.8,717.4,348.8,716.2    z"/>
		<path fill="#F26522" d="M360.6,697.1c-1.2,0-2.2,1-2.2,2.2v16.9c0,1.2,1,2.2,2.2,2.2c1.2,0,2.2-1,2.2-2.2v-16.9    C362.7,698.1,361.8,697.1,360.6,697.1z"/>
		<path fill="#F26522" d="M374.4,697.1c-1.2,0-2.2,1-2.2,2.2v16.9c0,1.2,1,2.2,2.2,2.2s2.2-1,2.2-2.2v-16.9    C376.6,698.1,375.6,697.1,374.4,697.1z"/>
		<path fill="#27AAE1" d="M349.2,669.2h11c2.1,0,3.8-1.7,3.8-3.8v-9.9c0-2.1-1.7-3.8-3.8-3.8h-11c-2.1,0-3.8,1.7-3.8,3.8v9.9    C345.4,667.5,347.1,669.2,349.2,669.2z"/>
	</g>

</svg>