<svg xmlns="http://www.w3.org/2000/svg" xmlns:xlink="http://www.w3.org/1999/xlink" version="1.1" id="Layer_1" x="0px" y="0px" enable-background="new 0 0 1136 936" xml:space="preserve" viewBox="699 629.2 334.9 111.1">
  <g>
    <rect x="830.7" y="629.2" fill="#C72E27" width="87.8" height="6.9"/>
    <path fill="#939698" d="M754.4,729.5c-2.5,0-4.6-1.3-5.8-3.2h-11.5c1.7,8,8.8,14,17.3,14c8.5,0,15.6-6,17.3-14h-11.5    C759,728.2,756.8,729.5,754.4,729.5z"/>
    <path fill="#141012" d="M754.4,729.5c2.5,0,4.6-1.3,5.8-3.2h-11.7C749.8,728.2,751.9,729.5,754.4,729.5z"/>
    <path fill="#939698" d="M796.1,729.5c-2.5,0-4.6-1.3-5.8-3.2h-11.5c1.7,8,8.8,14,17.3,14s15.6-6,17.3-14h-11.5    C800.7,728.2,798.6,729.5,796.1,729.5z"/>
    <path fill="#141012" d="M796.1,729.5c2.5,0,4.6-1.3,5.8-3.2h-11.7C791.5,728.2,793.6,729.5,796.1,729.5z"/>
    <path fill="#939698" d="M836.1,729.5c-2.5,0-4.6-1.3-5.8-3.2h-11.5c1.7,8,8.8,14,17.3,14c8.5,0,15.6-6,17.3-14h-11.5    C840.7,728.2,838.5,729.5,836.1,729.5z"/>
    <path fill="#141012" d="M836.1,729.5c2.5,0,4.6-1.3,5.8-3.2h-11.7C831.5,728.2,833.6,729.5,836.1,729.5z"/>
    <path fill="#939698" d="M914.3,729.5c-2.5,0-4.6-1.3-5.8-3.2H897c1.7,8,8.8,14,17.3,14c8.5,0,15.6-6,17.3-14h-11.5    C918.9,728.2,916.8,729.5,914.3,729.5z"/>
    <path fill="#141012" d="M914.3,729.5c2.5,0,4.6-1.3,5.8-3.2h-11.7C909.7,728.2,911.9,729.5,914.3,729.5z"/>
    <path fill="#939698" d="M956,729.5c-2.5,0-4.6-1.3-5.8-3.2h-11.5c1.7,8,8.8,14,17.3,14c8.5,0,15.6-6,17.3-14h-11.5    C960.6,728.2,958.5,729.5,956,729.5z"/>
    <path fill="#141012" d="M956,729.5c2.5,0,4.6-1.3,5.8-3.2h-11.7C951.4,728.2,953.6,729.5,956,729.5z"/>
    <path fill="#939698" d="M996,729.5c-2.5,0-4.6-1.3-5.8-3.2h-11.5c1.7,8,8.8,14,17.3,14s15.6-6,17.3-14h-11.5    C1000.6,728.2,998.5,729.5,996,729.5z"/>
    <path fill="#141012" d="M996,729.5c2.5,0,4.6-1.3,5.8-3.2h-11.7C991.4,728.2,993.5,729.5,996,729.5z"/>
    <path fill="#141012" d="M716.9,718.2l0-2.6H699v5.6h21.7c0-0.1-0.1-0.2-0.1-0.3C718.3,720.2,716.8,719.3,716.9,718.2z"/>
    <path fill="#F26522" d="M1009.9,721.9L1009.9,721.9l-29.2,0.1v-0.1l-253-0.1c-2.8,0-5.3-0.3-7.2-0.9c0,0.1,0.1,0.2,0.1,0.3    c1.3,3,4.2,5.1,7.7,5.1h8.7h11.5h11.7h11.5h7.1h11.5h11.7h11.5h5.3h11.5h11.7h11.5H897h11.5h11.7h11.5h7.1h11.5h11.7h11.5h5.3    h11.5h11.7h11.5h8.7c3.2,0,5.9-1.8,7.3-4.4c-0.3,0-0.5,0.1-0.8,0.1L1009.9,721.9z"/>
    <path fill="#F26522" d="M1009.9,647.8h20.5v-3.5c0-4.6-3.7-8.3-8.3-8.3H918.5h-87.8H728.3c-4.6,0-8.3,3.7-8.3,8.3v3.5h260.7    H1009.9z"/>
    <path fill="#F26522" d="M1009.9,693l18.8,0c0.6,0,1.2,0.1,1.7,0.3v-12.1h-20.5V693z"/>
    <path fill="#F26522" d="M980.8,693v-11.8H720v12.8c2-0.7,4.8-1.1,7.9-1.1L980.8,693z"/>
    <path fill="#B44426" d="M1030.4,693.3c-0.5-0.2-1.1-0.3-1.7-0.3l-18.8,0v28.9l18.7,0c0.3,0,0.5,0,0.8-0.1c2.5-0.4,4.4-2.5,4.4-5.1    l0.1-18.6C1033.9,695.9,1032.4,694,1030.4,693.3z"/>
    <path fill="#B44426" d="M720.6,720.9c1.9,0.6,4.4,0.9,7.2,0.9l253,0.1V693l-252.9-0.1c-3.1,0-5.9,0.4-7.9,1.1    c-1.9,0.6-3.1,1.5-3.1,2.5l-0.1,19.2l0,2.6C716.8,719.3,718.3,720.2,720.6,720.9z"/>
    <polygon fill="#D3591D" points="980.8,693 980.8,721.9 980.8,722 1009.9,722 1009.9,721.9 1009.9,693 1009.9,681.2 1030.4,681.2     1033.5,681.2 1033.5,647.8 1030.4,647.8 1009.9,647.8 980.8,647.8 720,647.8 719.3,647.8 719.3,681.2 720,681.2 980.8,681.2   "/>
    <g>
      <g>
        <circle fill="#27AAE1" cx="745.2" cy="660.6" r="9.3"/>
        <path fill="#6CB4E3" d="M745.2,651.3c-0.1,0-0.2,0-0.4,0l-8.9,8.9c0,0.1,0,0.2,0,0.4c0,0.5,0.1,1,0.1,1.5l10.6-10.6      C746.2,651.4,745.7,651.3,745.2,651.3z"/>
        <path fill="#6CB4E3" d="M747.9,651.7l-11.6,11.6c0.1,0.4,0.3,0.8,0.5,1.2l12.3-12.3C748.7,652,748.3,651.8,747.9,651.7z"/>
      </g>
      <g>
        <circle fill="#27AAE1" cx="781.2" cy="660.6" r="9.3"/>
        <path fill="#6CB4E3" d="M781.2,651.3c-0.1,0-0.2,0-0.4,0l-8.9,8.9c0,0.1,0,0.2,0,0.4c0,0.5,0.1,1,0.1,1.5l10.6-10.6      C782.2,651.4,781.7,651.3,781.2,651.3z"/>
        <path fill="#6CB4E3" d="M783.9,651.7l-11.6,11.6c0.1,0.4,0.3,0.8,0.5,1.2l12.3-12.3C784.7,652,784.3,651.8,783.9,651.7z"/>
      </g>
      <g>
        <circle fill="#27AAE1" cx="817.2" cy="660.6" r="9.3"/>
        <path fill="#6CB4E3" d="M817.2,651.3c-0.1,0-0.2,0-0.4,0l-8.9,8.9c0,0.1,0,0.2,0,0.4c0,0.5,0.1,1,0.1,1.5l10.6-10.6      C818.2,651.4,817.7,651.3,817.2,651.3z"/>
        <path fill="#6CB4E3" d="M819.9,651.7l-11.6,11.6c0.1,0.4,0.3,0.8,0.5,1.2l12.3-12.3C820.7,652,820.3,651.8,819.9,651.7z"/>
      </g>
      <g>
        <circle fill="#27AAE1" cx="853.2" cy="660.6" r="9.3"/>
        <path fill="#6CB4E3" d="M853.2,651.3c-0.1,0-0.2,0-0.4,0l-8.9,8.9c0,0.1,0,0.2,0,0.4c0,0.5,0.1,1,0.1,1.5l10.6-10.6      C854.2,651.4,853.7,651.3,853.2,651.3z"/>
        <path fill="#6CB4E3" d="M855.9,651.7l-11.6,11.6c0.1,0.4,0.3,0.8,0.5,1.2l12.3-12.3C856.7,652,856.3,651.8,855.9,651.7z"/>
      </g>
      <g>
        <circle fill="#27AAE1" cx="889.2" cy="660.6" r="9.3"/>
        <path fill="#6CB4E3" d="M889.2,651.3c-0.1,0-0.2,0-0.4,0l-8.9,8.9c0,0.1,0,0.2,0,0.4c0,0.5,0.1,1,0.1,1.5l10.6-10.6      C890.2,651.4,889.7,651.3,889.2,651.3z"/>
        <path fill="#6CB4E3" d="M891.9,651.7l-11.6,11.6c0.1,0.4,0.3,0.8,0.5,1.2l12.3-12.3C892.7,652,892.3,651.8,891.9,651.7z"/>
      </g>
      <g>
        <circle fill="#27AAE1" cx="925.2" cy="660.6" r="9.3"/>
        <path fill="#6CB4E3" d="M925.2,651.3c-0.1,0-0.2,0-0.4,0l-8.9,8.9c0,0.1,0,0.2,0,0.4c0,0.5,0.1,1,0.1,1.5l10.6-10.6      C926.2,651.4,925.7,651.3,925.2,651.3z"/>
        <path fill="#6CB4E3" d="M927.9,651.7l-11.6,11.6c0.1,0.4,0.3,0.8,0.5,1.2l12.3-12.3C928.7,652,928.3,651.8,927.9,651.7z"/>
      </g>
      <g>
        <circle fill="#27AAE1" cx="961.2" cy="660.6" r="9.3"/>
        <path fill="#6CB4E3" d="M961.2,651.3c-0.1,0-0.2,0-0.4,0l-8.9,8.9c0,0.1,0,0.2,0,0.4c0,0.5,0.1,1,0.1,1.5l10.6-10.6      C962.2,651.4,961.7,651.3,961.2,651.3z"/>
        <path fill="#6CB4E3" d="M963.9,651.7l-11.6,11.6c0.1,0.4,0.3,0.8,0.5,1.2l12.3-12.3C964.7,652,964.3,651.8,963.9,651.7z"/>
      </g>
      <g>
        <circle fill="#27AAE1" cx="995.3" cy="660.6" r="9.3"/>
        <path fill="#6CB4E3" d="M995.3,651.3c-0.1,0-0.2,0-0.4,0l-8.9,8.9c0,0.1,0,0.2,0,0.4c0,0.5,0.1,1,0.1,1.5l10.6-10.6      C996.3,651.4,995.8,651.3,995.3,651.3z"/>
        <path fill="#6CB4E3" d="M998,651.7l-11.6,11.6c0.1,0.4,0.3,0.8,0.5,1.2l12.3-12.3C998.8,652,998.4,651.8,998,651.7z"/>
      </g>
    </g>
  </g>
</svg>