<svg xmlns="http://www.w3.org/2000/svg" xmlns:xlink="http://www.w3.org/1999/xlink" version="1.1" id="Layer_1" x="0px" y="0px" enable-background="new 0 0 1136 936" xml:space="preserve" viewBox="699 629.2 334.9 111.1">
  <g>
    <rect x="830.7" y="629.2" fill="#C72E27" width="87.8" height="6.9"/>
    <path fill="#939698" d="M754.4,729.5c-2.5,0-4.6-1.3-5.8-3.2h-11.5c1.7,8,8.8,14,17.3,14c8.5,0,15.6-6,17.3-14h-11.5    C759,728.2,756.8,729.5,754.4,729.5z"/>
    <path fill="#141012" d="M754.4,729.5c2.5,0,4.6-1.3,5.8-3.2h-11.7C749.8,728.2,751.9,729.5,754.4,729.5z"/>
    <path fill="#939698" d="M796.1,729.5c-2.5,0-4.6-1.3-5.8-3.2h-11.5c1.7,8,8.8,14,17.3,14s15.6-6,17.3-14h-11.5    C800.7,728.2,798.6,729.5,796.1,729.5z"/>
    <path fill="#141012" d="M796.1,729.5c2.5,0,4.6-1.3,5.8-3.2h-11.7C791.5,728.2,793.6,729.5,796.1,729.5z"/>
    <path fill="#939698" d="M836.1,729.5c-2.5,0-4.6-1.3-5.8-3.2h-11.5c1.7,8,8.8,14,17.3,14c8.5,0,15.6-6,17.3-14h-11.5    C840.7,728.2,838.5,729.5,836.1,729.5z"/>
    <path fill="#141012" d="M836.1,729.5c2.5,0,4.6-1.3,5.8-3.2h-11.7C831.5,728.2,833.6,729.5,836.1,729.5z"/>
    <path fill="#939698" d="M914.3,729.5c-2.5,0-4.6-1.3-5.8-3.2H897c1.7,8,8.8,14,17.3,14c8.5,0,15.6-6,17.3-14h-11.5    C918.9,728.2,916.8,729.5,914.3,729.5z"/>
    <path fill="#141012" d="M914.3,729.5c2.5,0,4.6-1.3,5.8-3.2h-11.7C909.7,728.2,911.9,729.5,914.3,729.5z"/>
    <path fill="#939698" d="M956,729.5c-2.5,0-4.6-1.3-5.8-3.2h-11.5c1.7,8,8.8,14,17.3,14c8.5,0,15.6-6,17.3-14h-11.5    C960.6,728.2,958.5,729.5,956,729.5z"/>
    <path fill="#141012" d="M956,729.5c2.5,0,4.6-1.3,5.8-3.2h-11.7C951.4,728.2,953.6,729.5,956,729.5z"/>
    <path fill="#939698" d="M996,729.5c-2.5,0-4.6-1.3-5.8-3.2h-11.5c1.7,8,8.8,14,17.3,14s15.6-6,17.3-14h-11.5    C1000.6,728.2,998.5,729.5,996,729.5z"/>
    <path fill="#141012" d="M996,729.5c2.5,0,4.6-1.3,5.8-3.2h-11.7C991.4,728.2,993.5,729.5,996,729.5z"/>
    <path fill="#141012" d="M716.9,718.2l0-2.6H699v5.6h21.7c0-0.1-0.1-0.2-0.1-0.3C718.3,720.2,716.8,719.3,716.9,718.2z"/>
    <path fill="#F26522" d="M1009.9,721.9L1009.9,721.9l-29.2,0.1v-0.1l-253-0.1c-2.8,0-5.3-0.3-7.2-0.9c0,0.1,0.1,0.2,0.1,0.3    c1.3,3,4.2,5.1,7.7,5.1h8.7h11.5h11.7h11.5h7.1h11.5h11.7h11.5h5.3h11.5h11.7h11.5H897h11.5h11.7h11.5h7.1h11.5h11.7h11.5h5.3    h11.5h11.7h11.5h8.7c3.2,0,5.9-1.8,7.3-4.4c-0.3,0-0.5,0.1-0.8,0.1L1009.9,721.9z"/>
    <path fill="#F26522" d="M1009.9,647.8h20.5v-3.5c0-4.6-3.7-8.3-8.3-8.3H918.5h-87.8H728.3c-4.6,0-8.3,3.7-8.3,8.3v3.5h260.7    H1009.9z"/>
    
  </g>
</svg>